<?xml version="1.0" encoding="utf-8"?>
<!-- Svg Vector Icons : http://www.onlinewebfonts.com/icon -->
<!DOCTYPE svg PUBLIC "-//W3C//DTD SVG 1.1//EN" "http://www.w3.org/Graphics/SVG/1.1/DTD/svg11.dtd">
<svg version="1.1" xmlns="http://www.w3.org/2000/svg" xmlns:xlink="http://www.w3.org/1999/xlink" x="0px" y="0px" viewBox="0 0 1000 1000" enable-background="new 0 0 1000 1000" xml:space="preserve">
<metadata> Svg Vector Icons : http://www.onlinewebfonts.com/icon </metadata>
<g><g><g><path d="M989.9,159.2c0-37.4-30.4-67.8-67.8-67.8H807.4V31.8c0-15.3-12.4-27.7-27.7-27.7H720c-15.2,0-27.7,12.4-27.7,27.7v59.7H311.5V31.8c0-15.3-12.4-27.7-27.7-27.7h-55.8c-15.3,0-27.7,12.4-27.7,27.7v59.7H77.8c-37.4,0-67.8,30.4-67.8,67.8v241.6h35.7v525.3c0,38.5,31.2,69.7,69.7,69.7h765.1c38.5,0,69.7-31.2,69.7-69.7V400.8H990L989.9,159.2L989.9,159.2z M839.1,811.1c0,38.5-31.2,69.7-69.7,69.7H230.5c-38.5,0-69.7-31.2-69.7-69.7V400.8h678.3L839.1,811.1L839.1,811.1z"/><rect x="256" y="476.2" width="111.1" height="115.1"/><rect x="446.4" y="476.2" width="111.1" height="115.1"/><rect x="636.8" y="476.2" width="111.1" height="115.1"/><rect x="256" y="678.5" width="111.1" height="115"/><rect x="446.4" y="678.5" width="111.1" height="115"/><rect x="636.8" y="678.5" width="111.1" height="115"/></g></g><g></g><g></g><g></g><g></g><g></g><g></g><g></g><g></g><g></g><g></g><g></g><g></g><g></g><g></g><g></g></g>
</svg>