<?xml version="1.0" encoding="utf-8"?>
<!-- Svg Vector Icons : http://www.onlinewebfonts.com/icon -->
<!DOCTYPE svg PUBLIC "-//W3C//DTD SVG 1.1//EN" "http://www.w3.org/Graphics/SVG/1.1/DTD/svg11.dtd">
<svg version="1.1" xmlns="http://www.w3.org/2000/svg" xmlns:xlink="http://www.w3.org/1999/xlink" x="0px" y="0px" viewBox="0 0 1000 1000" enable-background="new 0 0 1000 1000" xml:space="preserve">
<metadata> Svg Vector Icons : http://www.onlinewebfonts.com/icon </metadata>
<g><g transform="translate(0.000000,511.000000) scale(0.100000,-0.100000)"><path d="M3408.3,4972.3c-22.8-41.1-22.8-79.8,0-182.5c16-70.7,36.5-139.1,45.6-150.5c18.2-20.5-148.2-196.1-184.7-196.1c-11.4,0-52.5-34.2-88.9-73c-54.7-59.3-70.7-95.8-70.7-171c0-79.8-16-116.3-109.5-228.1c-118.6-139.1-276-291.9-367.2-351.2c-45.6-27.4-57-59.3-66.1-166.5c-13.7-157.4,20.5-230.3,116.3-264.6c111.8-38.8,168.8-27.4,237.2,45.6c73,77.5,335.2,159.6,561,177.9c157.4,11.4,155.1,13.7,61.6-253.1c-180.2-513.1-387.7-816.5-672.8-985.2c-184.7-109.5-230.3-164.2-248.6-307.9c-13.7-98.1-22.8-116.3-54.7-102.6c-120.9,45.6-161.9,38.8-276-43.3c-130-95.8-130-95.8-150.5-294.2c-9.1-82.1-22.8-148.2-31.9-146c-6.9,0-82.1-16-166.5-38.8c-212.1-59.3-282.8-134.6-275.9-294.2c2.3-66.1,36.5-246.3,73-403.7c38.8-155.1,70.7-319.3,70.7-360.3c0-52.5,18.2-95.8,63.9-139.1c63.9-66.2,118.6-187,118.6-266.8c0-25.1,11.4-57,25.1-70.7c16-16,34.2-66.1,41-114c11.4-70.7,25.1-88.9,86.7-104.9c59.3-18.2,84.4-11.4,141.4,27.4c84.4,61.6,118.6,221.2,63.9,305.6c-18.3,27.4-41.1,84.4-47.9,125.4c-13.7,57-29.7,73-70.7,73c-95.8,0-125.4,25.1-125.4,100.3c0,38.8-20.5,111.7-43.3,161.9c-57,114-150.5,520-132.3,567.9c9.1,20.5,41.1,36.5,79.8,36.5c50.2,0,73-16,102.6-77.5c18.3-43.3,43.3-116.3,50.2-164.2c36.5-214.4,86.7-421.9,107.2-433.3c34.2-22.8,109.5,61.6,182.5,205.3c75.3,148.2,73,225.8-11.4,291.9c-45.6,34.2-45.6,43.3-16,73c29.6,29.7,59.3,29.7,253.2-4.6l221.2-36.5l57-116.3c134.6-276,593-878,973.8-1277.1c84.4-86.7,171-187,191.6-221.2c38.8-59.3,38.8-66.1-16-205.3c-31.9-79.8-75.3-230.3-98.1-333c-38.8-187-38.8-196.1,9.1-399.1c59.3-264.6,89-469.8,107.2-745.8c9.1-118.6,34.2-298.7,57-399.1c31.9-143.7,38.8-230.3,27.4-401.4l-16-218.9l-203-301.1c-114-164.2-230.3-323.8-262.3-353.5c-88.9-79.8-241.7-130-456.1-150.5c-191.6-16-193.9-18.2-280.5-116.3c-47.9-54.7-102.6-127.7-120.9-161.9c-34.2-61.6-34.2-63.9,50.2-100.3c70.7-29.7,136.8-34.2,346.7-22.8c250.9,11.4,280.5,20.5,305.6,91.2c11.4,29.6,189.3,20.5,244-13.7c54.7-34.2,120.9-2.3,132.3,63.9c4.6,22.8,27.4,63.9,50.2,88.9s57,70.7,73,102.6c75.3,141.4,355.8,517.7,513.1,686.5c207.5,216.7,209.8,225.8,209.8,750.3c2.3,333,6.9,362.6,63.9,497.2c57,127.7,98.1,177.9,98.1,118.6c0-25.1,234.9-296.5,419.6-485.8c116.3-118.6,278.2-346.7,328.4-456.1c45.6-102.6,31.9-221.2-52.5-485.8c-109.5-342.1-180.2-431-435.6-558.8c-262.3-130-353.5-232.6-276-310.2c29.7-29.6,75.3-31.9,278.2-18.2c241.8,16,244,16,266.8,82.1c20.5,59.3,31.9,66.1,127.7,66.1c132.3,0,196.1,47.9,228.1,171.1c13.7,50.2,57,180.2,93.5,289.6c68.4,200.7,77.5,246.3,161.9,684.2c68.4,362.6,70.7,353.5-109.5,529.1c-171.1,166.5-344.4,442.4-362.6,583.8c-11.4,82.1,4.6,116.3,189.3,403.7c109.5,173.3,275.9,456.1,369.4,627.2c136.8,253.1,177.9,314.7,219,314.7c50.2,0,77.5-16,305.6-175.6c79.8-57,141.4-86.7,146-70.7c6.8,18.2,22.8,18.2,57-2.3c59.3-29.7,104.9-31.9,86.7-4.6c-6.8,13.7,20.5,16,68.4,9.1c52.5-9.1,79.8-4.6,79.8,13.7c0,13.7,36.5,25.1,79.8,25.1c47.9,0,77.5,11.4,75.3,27.4c-4.6,13.7,22.8,27.4,61.6,27.4c57,2.3,75.3-13.7,123.2-98.1c29.6-57,41-91.2,25.1-82.1c-18.2,11.4-4.6-25.1,27.4-82.1c31.9-54.7,66.1-123.2,75.3-152.8c13.7-50.2,11.4-52.5-73-36.5c-47.9,6.8-125.4,27.3-173.3,43.3l-86.7,29.6l34.2-52.5c34.2-50.2,31.9-52.5-98.1-66.1c-225.8-25.1-310.2-136.8-95.8-127.7c148.2,6.8,171,4.6,221.2-34.2c41.1-31.9,34.2-34.2-82.1-29.6c-216.7,9.1-364.9-2.3-364.9-29.6c0-16,50.2-22.8,141.4-18.2c120.9,6.8,143.7,2.3,150.5-29.7c6.8-31.9-6.8-41-63.9-41c-38.8,0-107.2-16-155.1-36.5c-75.3-31.9-79.8-38.8-38.8-54.7c38.8-16,34.2-20.5-27.4-20.5c-47.9-2.3-102.6-27.4-155.1-73c-86.7-75.3-104.9-118.6-38.8-95.8c36.5,13.7,36.5,11.4-2.3-31.9c-45.6-52.5-152.8-335.2-152.8-405.9c0-25.1,38.8,25.1,86.7,114c66.2,120.9,116.3,180.2,207.5,244c145.9,102.6,253.1,143.7,253.1,98.1c0-16-34.2-41-75.3-54.7c-98.1-31.9-191.6-132.3-307.9-326.1l-91.2-150.5l130,82.1c70.7,45.6,205.3,104.9,303.3,132.3c95.8,27.3,196.1,63.9,223.5,77.5c27.4,16,82.1,20.5,123.2,13.7c38.8-6.9,104.9-4.6,145.9,6.8c77.5,22.8,84.4,13.7,52.4-70.7c-13.7-38.8-66.1-72.9-182.4-118.6c-86.7-36.5-184.7-91.2-212.1-123.2c-29.6-31.9-41-52.5-29.6-47.9c13.7,6.8,47.9,22.8,79.8,36.5c47.9,20.5,152.8,45.6,376.3,86.7c82.1,16,307.9,200.7,321.6,262.3c20.5,95.8,57,152.8,114,180.2c31.9,13.7,47.9,36.5,41.1,54.7c-6.9,18.3,4.6,47.9,22.8,68.4c57,54.7,88.9,155.1,91.2,278.2c2.3,93.5,11.4,116.3,54.7,139.1l52.5,25.1l-57,38.8c-63.9,38.8-134.5,148.2-77.5,116.3c16-11.4,47.9-34.2,70.7-52.5c61.6-54.7,45.6-2.3-41,132.3c-91.2,146-95.8,168.8-31.9,152.8c73-20.5,41.1,34.2-66.1,104.9c-177.9,120.9-166.5,214.4,11.4,104.9c100.3-61.6,116.3-45.6,41,43.3c-57,68.4-75.3,109.5-36.5,86.7c11.4-6.9,25.1,6.8,31.9,31.9c6.8,29.6,0,45.6-20.5,45.6c-57,0-216.7,91.2-203,114c9.1,13.7-4.6,22.8-27.4,22.8c-22.8,0-57,11.4-75.3,22.8c-27.4,16-18.2,27.4,43.3,52.5l75.3,31.9l-93.5,16c-102.6,16-120.9,47.9-41,73c38.8,13.7,25.1,20.5-73,34.2c-111.7,16-168.7,34.2-383.1,125.4c-50.2,20.5-75.3,47.9-75.3,77.5c0,57-18.2,57-91.2,0c-75.3-59.3-136.8-59.3-136.8,2.3c0,43.3-2.3,43.3-95.8-13.7c-54.7-34.2-189.3-104.9-303.3-159.6c-111.8-54.7-234.9-120.9-273.7-146c-36.5-27.4-84.4-47.9-102.6-47.9c-57,0-214.4,180.2-319.3,364.9c-132.3,230.4-262.3,392.3-463,574.7c-155.1,139.1-520,574.7-583.8,695.6c-16,29.6-20.5,86.7-11.4,141.4c13.7,82.1,18.2,88.9,59.3,68.4c41-22.8,43.3-18.2,27.4,29.6c-18.2,57-20.5,75.3-13.7,276c2.3,82.1,13.7,127.7,27.4,118.6c13.7-6.8,22.8,2.3,22.8,20.5c0,47.9,45.6,45.6,114-9.1c73-57,98.1-57,79.8-2.3c-6.8,25.1-4.6,50.2,6.8,57c25.1,16,6.9,127.7-27.3,171.1c-20.5,27.4-18.3,29.6,15.9,18.2c47.9-18.2,47.9,6.8,4.6,114c-47.9,114-43.3,127.7,27.4,82.1l63.9-41l-52.5,66.1c-27.4,36.5-50.2,77.5-50.2,91.2c0,13.7-25.1,63.9-57,109.5c-57,84.4-75.3,146-36.5,120.9c13.7-6.8,22.8,6.8,22.8,27.4c2.3,79.8,29.6,212.1,45.6,212.1c34.2-2.3,95.8-68.4,125.4-139.1c29.6-63.9,34.2-68.4,36.5-25.1c0,70.7-59.3,207.5-120.9,276c-45.6,50.2-45.6,54.7-6.8,38.8c45.6-16,45.6-16,2.3,31.9c-43.3,47.9-43.3,47.9,20.5,25.1c109.5-43.3,116.3-27.4,31.9,61.6c-45.6,45.6-93.5,107.2-107.2,136.8c-25.1,47.9-22.8,52.5,25.1,47.9c29.6-2.3,73-2.3,98.1-2.3c38.8,4.6,34.2,11.4-27.4,50.2c-41,22.8-88.9,73-107.2,109.5c-18.3,36.5-66.2,93.5-104.9,125.4c-79.8,68.4-86.7,93.5-22.8,73c82.1-25.1,47.9,29.6-84.4,141.4c-164.2,139.1-323.8,289.6-285.1,269.1c59.3-31.9-16,75.3-98.1,141.4c-43.3,36.5-79.8,73-79.8,84.4c0,20.5-100.3,148.2-184.7,234.9c-38.8,41-45.6,70.7-41,164.2c6.8,73,0,111.8-13.7,107.2c-11.4-6.8-77.5-27.4-146-50.2c-111.7-34.2-130-34.2-182.5-2.3c-31.9,18.3-93.5,41.1-132.3,50.2c-75.3,16-312.4,248.6-348.9,342.1C3435.7,5022.5,3435.7,5020.2,3408.3,4972.3z M2459.6,1368.9c-50.2-11.4-66.1,6.8-47.9,57c16,38.8,18.3,38.8,50.2-4.6C2491.5,1380.3,2491.5,1375.7,2459.6,1368.9z"/></g></g>
</svg>