<?xml version="1.0" encoding="utf-8"?>
<!-- Svg Vector Icons : http://www.onlinewebfonts.com/icon -->
<!DOCTYPE svg PUBLIC "-//W3C//DTD SVG 1.1//EN" "http://www.w3.org/Graphics/SVG/1.1/DTD/svg11.dtd">
<svg version="1.1" xmlns="http://www.w3.org/2000/svg" xmlns:xlink="http://www.w3.org/1999/xlink" x="0px" y="0px" viewBox="0 0 1000 1000" enable-background="new 0 0 1000 1000" xml:space="preserve">
<metadata> Svg Vector Icons : http://www.onlinewebfonts.com/icon </metadata>
<g><g><path d="M876.1,10c0.8,8.2-0.3,13.4-4.2,19.8c23.6,19.4,49.6,13.1,75.7,5.8c0.8,1.6-10,15.6-17.5,23.4c-5.9,6.1-20,17.9-18.3,23.8c7.4,26.1,6.6,52.1,7,78.7c0.5,31.3,7.6,62.4,9.9,93.7c1.3,18.2-14.2,33.5-30.5,34c-28.6,0.7-38.1-8.4-43.8-30.3c-4.4-16.9-16.3-31.8-26.9-51.5c-5.3,8.8-9.4,12.8-10.2,17.4c-5.4,31.8-6.8,64.6,11.2,92.1c17.2,26.5,24.6,53.3,19.9,83.8c-1.8,11.9,2.6,17.8,12.5,24.7c27.1,18.9,52.6,40,78.8,60.1c14,10.7,18.1,26.9,11.8,40.7c-15.5,33.9,0.1,64.6,4.9,96.5c1.6,10.6,1.3,22.8-2.5,32.6c-9.4,24.1-20.1,47.8-32.3,70.6c-9.2,17.1-21.6,16.5-32.9,0.4c-13.8-19.7-11.6-41.8,5.8-59.1c17.7-17.6,17.7-17.6,8.9-58.6c-1.8,3.5-4.5,6.9-5.1,10.6c-6.3,37.2-38.4,39.4-65.2,46.5c-15.5,4.2-32.6,2.5-48.7,3.5c-3.8-21.1,6-54.3,19.5-58.1c10.1-2.9,22.5,1.8,33.9,3.2c0.1,1.8,0.3,3.7,0.3,5.5c3.3-3,6.4-8.6,9.7-8.7c27.5-0.8,33-24.1,43.2-41.8c10.2-17.7,2.5-30.7-18.3-32c-37.7-2.5-75.5-4.3-113.2-6.4c-2.1-0.2-4.6,0.4-6.2-0.7c-26.8-18.2-49-1.2-71.8,9.5c-62.7,29.8-128.7,47.9-197.4,56.7c-14.4,1.8-19,8.2-21.6,22c-3.6,19.2-9,38.6-17.2,56.4c-11.9,25.9-12.7,38.5,7.4,59.7c19.8,20.9,42.4,39.3,62.3,60.2c7.2,7.8,10.9,19.3,14.8,29.7c2.3,6.3,0,14.3,2.7,20.3c12.9,29.6-1.7,53-15.1,77.2c-27.6-17.9-39.1-45.5-33.3-77c0.7-4.1,0.3-9.8-2.1-12.8c-26.4-31.7-54.1-61.9-93.4-78.7c-9.8-4.3-17.8-12.3-27.1-18.8c-20,11.7-33,35-26.6,58.1c11.9,43.4,31.9,81.8,64.9,114.6c20.1,20.1,31.8,48.6,48.8,75.8c-24.6,11.9-44.2,6.7-62.9-1.2c-15.8-6.6-25-18.6-24-37.1c0.3-5-0.9-13.5-3.8-14.8c-25.5-10.9-29.9-36.7-41.5-57.1c-20.7-36.3-39.7-73.8-60.6-110c-7.7-13.5-10.1-25.1,0.4-37.6c1.8-2.1,2.7-4.7,4.5-6.9c22.2-28.1,27.2-54.7,0-84.2c-11.4-12.2-15.8-30.9-25.4-51c-3.8,38.2-5.2,71.5-10.7,104.2c-5.2,30.4-13.1,61-37.1,83.4c-5.3,4.9-13.6,6.7-20.2,10.4c-9.4,5.3-18.7,10.8-27.5,17c-4.4,3.1-7.5,7.9-11,12.2c-20.8,25.9-35.5,58.6-77.9,64.5c-9.5-6.6-10.3-19.6-4.4-34.1c12.5-30.1,25.3-60,37.7-89.6c-10,4.6-20.8,9.5-36.1,16.5c11.9-14.7,22.9-24.4,29.1-36.6c12.4-24.3,25.9-49,32.2-75.1c19.3-79.5,60.2-143.1,126.4-191.7c27.4-20,50.2-46.3,76.7-67.8c27.2-22.1,58.6-31.7,94.7-35.3c30.5-3.1,59.8-18.9,89.1-30.2c5.2-2,8.4-9.4,16.1-18.6c-10.3,0.9-14.6,2-18.8,1.5c-8.5-1.3-20.7,6.1-23.3-10.7c-0.5-3-10-4.6-19.9-8.8c10.9-11.2,20.8-21.4,31.8-32.7c-3-2-6.5-4.4-15.2-10.1c5.7-3.1,10.2-5.6,13.1-7.1c-7.7-11.2-15.3-22.2-21.1-30.6c17.2-10.1,33.1-19.5,51.1-30.1c-5.4-2.4-8.5-3.7-13.5-5.9c3.3-2.1,5.4-3.2,7.2-4.6c4-2.9,7.9-6,11.9-9c-3-3.4-5.9-7-9.1-10.2c-4.7-4.6-9.6-8.9-17.9-16.6c12.3-2.2,18.7-3.3,27.5-4.9c-3.8-4.8-6.4-8.2-10.3-13.2c49.6,11.2,79.1-26.7,118.3-43.9c-2.3-4.9-4.3-9.4-5.2-11.4c24.2-11.3,47.1-23.7,71.2-32.7c42.9-16,87.3-23.9,133.2-15.1C841.5,19.6,860.1,31.9,876.1,10z"/></g><g></g><g></g><g></g><g></g><g></g><g></g><g></g><g></g><g></g><g></g><g></g><g></g><g></g><g></g><g></g></g>
</svg>