<?xml version="1.0" encoding="utf-8"?>
<!-- Svg Vector Icons : http://www.onlinewebfonts.com/icon -->
<!DOCTYPE svg PUBLIC "-//W3C//DTD SVG 1.1//EN" "http://www.w3.org/Graphics/SVG/1.1/DTD/svg11.dtd">
<svg version="1.1" xmlns="http://www.w3.org/2000/svg" xmlns:xlink="http://www.w3.org/1999/xlink" x="0px" y="0px" viewBox="0 0 1000 1000" enable-background="new 0 0 1000 1000" xml:space="preserve">
<metadata> Svg Vector Icons : http://www.onlinewebfonts.com/icon </metadata>
<g><g><g><path d="M171.2,451.6c-89,0-161.2,72.2-161.2,161.2c0,89,72.2,161.2,161.2,161.2c65,0,120.9-38.6,146.4-94l38.3,29.5c0,0,281.5,2,296.9-6.7c0,0-34.9-95.4,9.4-135.7c4.7-4.2,10.5-9.1,17-14.2c-7.4,18.5-11.6,38.7-11.6,59.9c0,89,72.2,161.2,161.2,161.2c89,0,161.2-72.2,161.2-161.2c0-89.1-72.2-161.2-161.2-161.2c-1.5,0-2.9,0.2-4.3,0.2c11.6-7.6,19.1-12.3,19.1-12.3l-12.1-10.8c0,0,34.9-8,26.9-25.5c-8.1-17.5-92.7-122.3-92.7-122.3s15-32.2-16-55.1l-14.9,32.2c0,0-38-26.2-53.1-21.2c-15.1,5-37.8,7.6-44.8,18.6l-7,6.6c0,0-2,11.6,9.6,28.7c0,0,116.4,35.8,121.9,62c0,0,8.1,16.6-26.7,20.6l-7,9.1l-18.7,1l-33.7-77.1c0,0-32.3,8.6-48.9,21.7l2.5,13.1c0,0-135.5-92.2-263,44.3c0,0-94.2,27.2-160.2-56.4c0,0-1-27.2-160.2-22.2l11.1,11.6c0,0-11.1,1-15.6,8.1c-4.5,7,2.5,14.6,38.8,14.6c0,0,82.1,93.7,145.1,88.2l89.7,43.3l39.8,68c0,0,0.1,5.8,0.5,14.8c-9.2,2-19.6,4.2-30.6,6.5C302.9,497.9,242.5,451.6,171.2,451.6z M828.8,501c61.7,0,111.8,50.2,111.8,111.8c0,61.7-50.2,111.8-111.8,111.8c-61.7,0-111.8-50.2-111.8-111.8C717,551.2,767.1,501,828.8,501z M171.2,724.7c-61.6,0-111.8-50.2-111.8-111.8c0-61.7,50.2-111.8,111.8-111.8c47.4,0,87.9,29.7,104.1,71.4c-59.3,12.6-118.1,25.2-118.1,25.2l7.6,41.8l116.1-5.1C270.9,685.7,225.5,724.7,171.2,724.7z M364.8,630.6c3.3,11.2,7.6,20.1,13.2,23.9l-51.8,2c2.2-7.9,3.9-16.1,4.9-24.5L364.8,630.6z"/></g></g><g></g><g></g><g></g><g></g><g></g><g></g><g></g><g></g><g></g><g></g><g></g><g></g><g></g><g></g><g></g></g>
</svg>