<?xml version="1.0" encoding="UTF-8"?>
<!DOCTYPE svg PUBLIC "-//W3C//DTD SVG 1.1//EN" "http://www.w3.org/Graphics/SVG/1.1/DTD/svg11.dtd">
<svg version="1.1" xmlns="http://www.w3.org/2000/svg" xmlns:xlink="http://www.w3.org/1999/xlink" x="0px" y="0px" width="33px" height="33px" viewBox="0 0 573 573" enable-background="new 0 0 573 573" xml:space="preserve">
<g>
	<path fill="#999" d="M397.548,162h-31.438c-5.167,0-10.111,4.972-10.111,10.121v32.163c0,5.152,4.943,8.716,10.111,8.716h31.438   c5.186,0,9.452-3.563,9.452-8.716v-32.163C407,166.972,402.734,162,397.548,162z"/>
	<path fill="#999" d="M0,0v573h573V0H0z M433,376.038C433,408.184,407.434,434,375.306,434H197.469   C165.322,434,139,408.184,139,376.038V244h85.843c-8.779,12-13.93,27.373-13.93,43.637c0,41.58,33.684,75.314,75.265,75.314   c41.583,0,75.302-33.723,75.302-75.303c0-16.266-5.167-31.648-13.914-43.648H433V376.038z M228.196,287.691   c0-17.353,7.69-32.942,19.806-43.604c4.252-3.716,9.073-6.844,14.26-9.213c7.326-3.317,15.397-5.184,23.936-5.184   c8.52,0,16.607,1.866,23.92,5.184c5.2,2.369,10.005,5.497,14.257,9.213c12.132,10.662,19.806,26.252,19.806,43.604   c0,31.988-26.01,57.999-57.982,57.999C254.207,345.69,228.196,319.68,228.196,287.691z M433,234h-93.175   c-13.654-13-32.631-22.467-53.646-22.467c-20.997,0-39.957,9.467-53.609,22.467H139v-37.338c0-19.614,10-36.967,25-47.492V211h11   v-68.345c3-1.09,6-1.971,9-2.645V211h12v-72.493c0-0.017,1.001-0.507,1.469-0.507H204v73h12v-73h159.322   C407.434,138,433,164.517,433,196.662V234z"/>
	<path fill="#999" d="M286.386,330.568c23.66,0,42.861-19.2,42.861-42.877c0-23.679-19.201-42.863-42.861-42.863   c-23.677,0-42.877,19.185-42.877,42.863C243.509,311.368,262.709,330.568,286.386,330.568z"/>
</g>
</svg>